<?xml version="1.0" encoding="UTF-8"?>
<!DOCTYPE svg PUBLIC "-//W3C//DTD SVG 1.1//EN" "http://www.w3.org/Graphics/SVG/1.1/DTD/svg11.dtd">
<svg xmlns="http://www.w3.org/2000/svg" version="1.1" width="48px" height="56px" style="shape-rendering:geometricPrecision; text-rendering:geometricPrecision; image-rendering:optimizeQuality; fill-rule:evenodd; clip-rule:evenodd" xmlns:xlink="http://www.w3.org/1999/xlink">
<g><path style="opacity:0.982" fill="#fcdc62" d="M 22.5,16.5 C 21.209,16.2627 20.209,16.596 19.5,17.5C 16.2876,17.7124 14.2876,19.3791 13.5,22.5C 12.6618,22.8417 12.3284,23.5084 12.5,24.5C 11.3121,25.6843 10.1455,25.6843 9,24.5C 8.50649,22.8659 8.33982,21.1992 8.5,19.5C 6.57135,19.7692 4.90469,19.2692 3.5,18C 7.23927,16.8729 10.5726,15.0396 13.5,12.5C 14.2811,11.2713 14.7811,9.93801 15,8.5C 16.1827,7.26899 17.3493,7.26899 18.5,8.5C 18.1667,9.16667 17.8333,9.83333 17.5,10.5C 19.6789,11.7567 21.6789,13.2567 23.5,15C 22.944,15.3826 22.6107,15.8826 22.5,16.5 Z"/></g>
<g><path style="opacity:0.994" fill="#fddd5e" d="M 31.5,27.5 C 29.8185,25.9925 27.8185,24.9925 25.5,24.5C 25.1583,23.6618 24.4916,23.3284 23.5,23.5C 23.1583,22.6618 22.4916,22.3284 21.5,22.5C 20.4264,21.1154 19.0931,19.9487 17.5,19C 18.4158,18.7216 19.0825,18.2216 19.5,17.5C 20.791,17.7373 21.791,17.404 22.5,16.5C 26.4818,15.5077 30.4818,14.5077 34.5,13.5C 41.3908,15.1619 43.2241,19.1619 40,25.5C 37.4355,27.1793 34.6021,27.846 31.5,27.5 Z"/></g>
<g><path style="opacity:0.974" fill="#fdde60" d="M 17.5,23.5 C 17.2627,24.791 17.596,25.791 18.5,26.5C 18.2627,27.791 18.596,28.791 19.5,29.5C 19.2322,31.099 19.5655,32.4324 20.5,33.5C 22.0066,41.8246 18.6733,45.3246 10.5,44C 8.4164,42.4993 7.08307,40.4993 6.5,38C 8.11716,33.2711 10.1172,28.7711 12.5,24.5C 13.3382,24.1583 13.6716,23.4916 13.5,22.5C 15.1951,21.1736 16.5284,21.5069 17.5,23.5 Z"/></g>
<g><path style="opacity:0.978" fill="#fbde6a" d="M 21.5,22.5 C 21.8417,23.3382 22.5084,23.6716 23.5,23.5C 23.8417,24.3382 24.5084,24.6716 25.5,24.5C 25.2671,26.0618 24.6005,27.3951 23.5,28.5C 22.8333,28.5 22.5,28.8333 22.5,29.5C 21.8333,29.5 21.5,29.8333 21.5,30.5C 20.8333,30.1667 20.1667,29.8333 19.5,29.5C 19.7373,28.209 19.404,27.209 18.5,26.5C 18.7373,25.209 18.404,24.209 17.5,23.5C 17.3691,22.6236 17.7025,21.9569 18.5,21.5C 19.4168,22.1272 20.4168,22.4606 21.5,22.5 Z"/></g>
<g><path style="opacity:0.938" fill="#fbdc63" d="M 31.5,27.5 C 31.5,28.1667 31.5,28.8333 31.5,29.5C 30.8333,29.5 30.5,29.8333 30.5,30.5C 29.8333,30.5 29.5,30.8333 29.5,31.5C 27.5956,31.7376 26.2623,32.7376 25.5,34.5C 24.8333,34.5 24.5,34.8333 24.5,35.5C 23.8333,35.5 23.5,35.8333 23.5,36.5C 22.1001,35.9002 21.1001,34.9002 20.5,33.5C 20.5569,32.391 20.8902,31.391 21.5,30.5C 22.1667,30.5 22.5,30.1667 22.5,29.5C 23.1667,29.5 23.5,29.1667 23.5,28.5C 25.0443,28.2969 26.3777,27.6302 27.5,26.5C 28.7362,27.2458 30.0695,27.5792 31.5,27.5 Z"/></g>
<g><path style="opacity:0.968" fill="#fbdd67" d="M 33.5,35.5 C 32.8333,35.5 32.5,35.8333 32.5,36.5C 31.8333,36.5 31.5,36.8333 31.5,37.5C 29.5956,37.7376 28.2623,38.7376 27.5,40.5C 23.9177,40.7929 22.5843,39.4596 23.5,36.5C 24.1667,36.5 24.5,36.1667 24.5,35.5C 25.1667,35.5 25.5,35.1667 25.5,34.5C 27.4044,34.2624 28.7377,33.2624 29.5,31.5C 30.1667,31.5 30.5,31.1667 30.5,30.5C 31.1667,30.5 31.5,30.1667 31.5,29.5C 32.1499,29.1961 32.8165,28.8627 33.5,28.5C 35.4617,31.1196 35.4617,33.4529 33.5,35.5 Z"/></g>
<g><path style="opacity:0.947" fill="#f9db68" d="M 33.5,35.5 C 34.5,35.5 35.5,35.5 36.5,35.5C 36.7135,37.1439 36.3802,38.6439 35.5,40C 37.0368,41.1096 37.7035,42.6096 37.5,44.5C 34.6994,43.2341 31.6994,42.4008 28.5,42C 27.944,41.6174 27.6107,41.1174 27.5,40.5C 29.4044,40.2624 30.7377,39.2624 31.5,37.5C 32.1667,37.5 32.5,37.1667 32.5,36.5C 33.1667,36.5 33.5,36.1667 33.5,35.5 Z"/></g>
</svg>
